<?xml version="1.0" encoding="UTF-8"?>
<svg id="Layer_2" data-name="Layer 2" xmlns="http://www.w3.org/2000/svg" viewBox="0 0 90.97 37.76">
  <defs>
    <style>
      .cls-1 {
        fill: #061e5c;
      }

      .cls-2 {
        fill: #2979ff;
      }
    </style>
  </defs>
  <g id="Layer_1-2" data-name="Layer 1">
    <g>
      <path class="cls-2" d="M52.32,18.32v.46c0,.22-.05,.43-.13,.65-.08,.19-.21,.38-.35,.54-.16,.16-.32,.27-.53,.38-.19,.08-.43,.14-.64,.14-.19,0-.4-.03-.58-.08-.21-.05-.37-.16-.56-.3-.16-.13-.29-.32-.4-.54s-.16-.49-.16-.84v-4.02c0-.24,.05-.46,.13-.67,.08-.22,.19-.38,.35-.54,.16-.16,.32-.27,.53-.35,.21-.08,.43-.13,.69-.13,.48,0,.88,.16,1.2,.49,.16,.16,.27,.35,.35,.57,.08,.22,.13,.46,.13,.7v.4h-1.06v-.35c0-.22-.05-.38-.16-.54-.11-.16-.27-.22-.48-.22-.27,0-.42,.08-.5,.24-.08,.16-.13,.38-.13,.62v3.72c0,.22,.05,.38,.13,.54,.08,.14,.27,.22,.48,.22,.08,0,.13,0,.21-.03,.08-.03,.16-.05,.21-.11,.05-.05,.11-.13,.16-.22,.05-.11,.05-.22,.05-.35v-.35h1.06v-.03Z"/>
      <path class="cls-2" d="M55.11,14.81c0-.3,.05-.57,.16-.78,.11-.22,.24-.4,.4-.57,.16-.13,.35-.24,.56-.32,.21-.08,.42-.11,.61-.11,.21,0,.42,.03,.61,.11,.21,.08,.4,.19,.56,.32,.16,.16,.29,.35,.4,.57,.11,.22,.16,.49,.16,.78v3.86c0,.3-.05,.57-.16,.78-.11,.22-.24,.4-.4,.54-.16,.16-.35,.27-.56,.35-.21,.08-.43,.11-.61,.11-.21,0-.43-.03-.61-.11-.21-.08-.4-.19-.56-.35-.16-.14-.29-.32-.4-.54-.11-.22-.16-.49-.16-.78v-3.86Zm1.04,3.86c0,.24,.08,.43,.21,.57,.13,.11,.29,.19,.48,.19s.35-.05,.48-.19c.13-.11,.21-.3,.21-.57v-3.86c0-.24-.08-.43-.21-.57-.13-.11-.29-.19-.48-.19s-.35,.05-.48,.19c-.13,.11-.21,.3-.21,.57v3.86Z"/>
      <path class="cls-2" d="M61.51,20.39v-7.31h.98l1.33,3.86h.03l1.3-3.86h1.01v7.31h-1.04v-4.45h-.03l-1.01,3.13h-.5l-1.01-3.13h-.03v4.45h-1.04Z"/>
      <path class="cls-2" d="M69.16,20.39v-7.31h1.54c.29,0,.53,.03,.74,.11,.21,.08,.4,.22,.58,.4,.19,.19,.29,.4,.37,.67,.08,.27,.11,.59,.11,1.05,0,.32-.03,.59-.05,.84-.03,.22-.11,.43-.24,.65-.13,.24-.32,.43-.56,.57-.24,.14-.56,.19-.93,.19h-.53v2.86h-1.04v-.03Zm1.01-6.32v2.48h.5c.21,0,.37-.03,.48-.08,.11-.05,.19-.13,.27-.27,.05-.11,.08-.22,.11-.38,0-.16,.03-.32,.03-.51v-.49c0-.16-.03-.3-.08-.4-.05-.11-.13-.22-.24-.27-.11-.05-.27-.08-.48-.08h-.58Z"/>
      <path class="cls-2" d="M74.45,20.39l1.59-7.31h.85l1.59,7.31h-1.04l-.29-1.57h-1.41l-.29,1.57h-1.01Zm2.55-2.56l-.5-2.64h-.03l-.5,2.64h1.04Z"/>
      <path class="cls-2" d="M81.01,20.39v-7.31h.98l1.57,4.4h.03v-4.4h1.04v7.31h-.98l-1.57-4.4h-.03v4.4h-1.04Z"/>
      <path class="cls-2" d="M88.53,20.39v-3.1l-1.41-4.21h1.09l.82,2.91h.03l.82-2.91h1.09l-1.41,4.21v3.1h-1.04Z"/>
      <path class="cls-2" d="M18.65,27.37c-.66-.05-1.33-.05-1.99-.05-2.95,0-6,.4-9.03,1.16-1.04,.27-2.05,.57-3.03,.89V7.5c1.65-.78,3.43-1.46,5.29-1.92,2.28-.59,4.57-.89,6.75-.89,.69,0,1.35,.03,1.99,.08v.08c.74,.22,1.51,.4,2.31,.54,.74,.13,1.51,.22,2.31,.27V.89c-1.94-.59-4.17-.89-6.59-.89s-5.18,.32-7.89,1.03C5.47,1.86,2.5,3.16,0,4.72v31.98c2.5-1.57,5.5-2.83,8.79-3.7,2.71-.7,5.39-1.03,7.89-1.03,.69,0,1.35,.03,1.99,.08v-4.7h-.03Z"/>
      <path class="cls-1" d="M33.18,4.72c-2.71,.7-5.39,1.03-7.89,1.03-.69,0-1.35-.03-1.99-.08-.8-.05-1.57-.16-2.31-.27-.8-.13-1.57-.32-2.31-.54V36.87c1.97,.57,4.22,.89,6.64,.89s5.18-.32,7.89-1.03c3.29-.84,6.27-2.13,8.79-3.7V1.05c-2.55,1.54-5.53,2.83-8.82,3.67Zm4.14,25.53c-1.65,.78-3.43,1.46-5.29,1.92-2.28,.59-4.57,.89-6.75,.89-.69,0-1.35-.03-1.99-.08V10.39c.66,.05,1.33,.05,1.99,.05,2.95,0,6-.4,9.03-1.16,1.04-.27,2.05-.57,3.03-.89V30.25h-.03Z"/>
      <path class="cls-1" d="M49.48,23.88v-1.4h-.5v-.3h1.33v.3h-.5v1.4h-.32Z"/>
      <path class="cls-1" d="M54.18,23.88h-.37l-.13-.38h-.66l-.13,.38h-.35l.64-1.7h.35l.66,1.7Zm-.64-.67l-.24-.62-.24,.62h.48Z"/>
      <path class="cls-1" d="M57.29,23.26v-.27h.72v.67c-.19,.16-.43,.27-.72,.27s-.48-.08-.64-.24c-.13-.16-.21-.38-.21-.65,0-.3,.08-.51,.24-.65,.16-.13,.35-.22,.58-.22,.4,0,.64,.16,.72,.49l-.35,.05c-.05-.19-.19-.27-.37-.27-.32,0-.48,.19-.48,.57,0,.19,.05,.32,.13,.43,.08,.11,.21,.16,.35,.16s.27-.05,.4-.14v-.22h-.37Z"/>
      <path class="cls-1" d="M62.5,23.88v-1.7h.35v1.4h.85v.3h-1.2Z"/>
      <path class="cls-1" d="M66.06,23.88v-1.7h.35v1.7h-.35Z"/>
      <path class="cls-1" d="M68.84,23.88v-1.7h.32l.69,1.13v-1.13h.32v1.7h-.35l-.66-1.11v1.11h-.32Z"/>
      <path class="cls-1" d="M72.7,23.88v-1.7h1.25v.3h-.9v.38h.85v.3h-.85v.46h.9v.3h-1.25v-.03Z"/>
      <path class="cls-1" d="M78.33,23.88v-1.7h.35v.67h.66v-.67h.35v1.7h-.35v-.73h-.66v.73h-.35Z"/>
      <path class="cls-1" d="M82.15,23.88v-1.7h1.25v.3h-.9v.38h.85v.3h-.85v.46h.93v.3h-1.28v-.03Z"/>
      <path class="cls-1" d="M85.87,23.88v-1.7h.72c.21,0,.37,.03,.5,.11,.11,.05,.16,.19,.16,.38,0,.27-.16,.43-.45,.46,.11,.05,.24,.19,.37,.4l.21,.32h-.43l-.37-.54c-.03-.05-.08-.11-.13-.13-.05-.03-.11-.03-.21-.03h-.08v.7h-.29v.03Zm.35-1h.24c.16,0,.29-.03,.35-.05,.05-.03,.08-.08,.08-.19,0-.08-.03-.13-.08-.16-.05-.03-.16-.05-.35-.05h-.27v.46h.03Z"/>
      <path class="cls-1" d="M89.7,23.88v-1.7h1.25v.3h-.9v.38h.85v.3h-.85v.46h.93v.3h-1.28v-.03Z"/>
    </g>
  </g>
</svg>